<svg width="515" height="103" viewBox="0 0 515 103" fill="none" xmlns="http://www.w3.org/2000/svg">
<path d="M33.5688 0C33.678 0.224791 33.8115 0.405601 34.1031 0.403973C36.5172 0.400715 38.827 1.09301 41.0961 1.74458C43.9842 2.57044 46.7338 3.83285 49.2097 5.60186C51.4186 7.18029 53.2592 9.05355 54.393 11.5882C55.1439 13.2643 55.5772 15.0317 55.8248 16.7958C56.478 21.4659 56.8103 26.1735 56.6767 30.9007C56.6669 31.2395 56.6751 31.5815 56.6751 31.8552C56.2727 32.1631 55.9144 32.0784 55.5788 32.0784C48.3171 32.0832 41.0554 32.0653 33.7952 32.1012C32.7967 32.1061 32.5719 31.7005 32.5768 30.8078C32.5898 27.5434 32.6094 24.2758 32.4954 21.0131C32.4546 19.8859 32.2966 18.7082 31.3958 17.7829C29.604 15.9423 26.6948 16.672 25.4894 18.2993C24.5544 19.5634 24.1716 21.0115 24.1862 22.5541C24.209 24.9209 23.9712 27.291 24.5837 29.6448C25.1261 31.7314 26.2859 33.3147 27.9425 34.6146C31.7835 37.6314 36.1767 39.7881 40.1969 42.5295C44.2953 45.3248 48.3611 48.1444 51.8763 51.6906C53.8766 53.7056 55.3768 55.9991 56.3069 58.6721C57.2664 61.4315 57.8284 64.2626 58.216 67.167C58.7259 70.9852 58.9442 74.805 58.7259 78.6281C58.5109 82.3909 58.0808 86.1227 56.8135 89.7503C55.6749 93.0131 53.5476 95.3001 50.8289 97.2255C49.0827 98.4618 47.2387 99.5434 45.2596 100.299C42.8162 101.233 40.3126 102.023 37.6949 102.407C37.0173 102.506 36.1686 102.26 35.6538 103H24.3947C24.2546 102.58 23.9061 102.607 23.5558 102.57C21.0538 102.309 18.6251 101.671 16.286 100.804C14.0853 99.9881 11.9889 98.9016 10.0179 97.5871C7.4344 95.8653 5.24839 93.7331 3.841 90.9867C2.06873 87.5252 1.39761 83.7217 1.0474 79.8726C0.698807 76.0674 0.847039 72.2492 0.817719 68.4375C0.809574 67.4748 0.81609 66.5138 0.81609 65.5511H24.6326C24.6326 69.5533 24.6993 73.4807 24.6032 77.4031C24.5576 79.3187 24.9909 81.1708 25.0577 83.0653C25.0773 83.5947 25.3949 84.1273 25.6881 84.6225C26.9375 86.7336 30.8697 86.7971 32.5198 84.8978C33.836 83.3845 34.0656 81.4689 34.1699 79.6087C34.3198 76.9649 34.3817 74.2902 33.7562 71.6872C33.3766 70.1072 33.1306 68.4554 32.0849 67.1083C31.1825 65.9437 29.9754 65.1227 28.8466 64.2186C25.8298 61.8013 22.5883 59.7033 19.3777 57.5645C15.6523 55.0836 11.8911 52.637 8.4427 49.788C3.64553 45.8248 1.17771 40.5422 0.42352 34.4191C0.381168 34.0689 0.405601 33.7219 0 33.5688V20.6417C0.28669 20.526 0.403973 20.3224 0.420262 20.0064C0.495192 18.4345 0.89102 16.918 1.24287 15.3917C1.82765 12.8506 2.97115 10.5701 4.62288 8.58442C6.7698 6.00584 9.48521 4.20262 12.559 2.82618C15.4243 1.54422 18.3889 0.796543 21.4741 0.421891C21.7754 0.384426 21.9204 0.307866 21.8927 0H33.5688Z" fill="#0C1736"/>
<path d="M515 47.1219C512.675 46.99 510.344 47.0388 508.087 47.5894C505.002 48.342 502.547 50.01 501.4 53.1212C501.061 54.0416 500.928 55.058 500.84 56.0435C500.543 59.3453 500.384 62.6504 500.397 65.9718C500.442 77.1592 500.411 88.3467 500.41 99.5341C500.41 99.9446 500.41 100.357 500.41 100.844H475.852V20.0802H500.419C500.133 23.3429 499.846 26.5942 499.561 29.8439C500.939 27.6596 502.211 25.5371 503.962 23.7143C506.699 20.8653 509.911 18.9953 513.886 18.5588C514.26 18.5164 514.629 18.4203 515 18.3486V47.1219Z" fill="#2969FF"/>
<path d="M266.861 100.892C258.837 100.901 250.812 100.909 242.786 100.915C242.654 100.915 242.522 100.881 242.346 100.858V2.16504H266.923V42.8865C267.915 41.5361 268.059 40.1124 268.523 38.8272C269.308 36.6493 269.965 34.4258 270.675 32.2203C271.496 29.6678 272.313 27.1136 273.139 24.5611C273.584 23.1863 274.043 21.8164 274.49 20.4415C274.599 20.1076 274.788 19.9512 275.159 19.9529C281.795 19.9643 288.432 19.9675 295.068 19.9773C295.128 19.9773 295.188 20.0408 295.35 20.1337C294.983 21.3554 294.613 22.6064 294.232 23.8525C293.25 27.0631 292.273 30.2737 291.274 33.4794C290.636 35.527 289.948 37.5583 289.31 39.6042C288.697 41.5621 288.125 43.5315 287.523 45.4927C286.892 47.5435 286.281 49.6009 285.579 51.6289C285.423 52.0834 285.527 52.3928 285.632 52.7854C286.552 56.2176 287.451 59.6546 288.358 63.0883C289.122 65.9895 289.878 68.8922 290.655 71.79C291.579 75.245 292.528 78.6934 293.454 82.1467C294.196 84.9208 294.876 87.7111 295.667 90.4705C296.355 92.8634 296.881 95.2987 297.616 97.6834C297.87 98.5044 298.099 99.3693 298.272 100.234C298.373 100.741 298.217 100.853 297.826 100.917C297.69 100.94 297.547 100.923 297.409 100.923C289.974 100.923 282.538 100.923 275.104 100.922C274.967 100.922 274.832 100.902 274.684 100.891C273.848 97.0791 273.092 93.2723 272.217 89.5013C271.119 84.7693 270.157 80.0063 269.041 75.2776C268.508 73.0215 267.852 70.7541 267.691 68.4084C267.87 67.6135 267.355 67.0613 266.861 66.4537V100.892Z" fill="#0C1736"/>
<path d="M141.365 60.665C141.378 60.665 141.389 60.665 141.402 60.665C141.402 54.6901 141.42 48.7168 141.392 42.742C141.383 40.639 141.445 38.5377 141.182 36.4299C140.874 33.9572 140.555 33.4017 138.503 32.8707C136.835 32.4374 134.818 33.6689 134.742 35.376C134.672 36.8974 134.292 38.3699 134.294 39.8962C134.312 53.5824 134.282 67.267 134.331 80.9532C134.338 82.7385 134.305 84.5808 135.095 86.2798C135.525 87.2034 136.169 87.8875 137.227 87.9673C138.514 88.0635 139.781 88.0227 140.567 86.7228C141.23 85.625 141.327 84.3691 141.337 83.1734C141.394 75.6706 141.365 68.1678 141.365 60.665ZM109.676 63.1996C109.676 56.4933 109.681 51.732 109.676 46.9723C109.671 43.1524 110.117 39.3538 111.005 35.6724C111.999 31.5513 113.921 27.8129 117.218 24.946C121.06 21.6067 125.486 19.6748 130.542 18.9141C133.219 18.5101 135.874 18.3179 138.55 18.3945C141.826 18.4873 145.046 19.0151 148.224 19.8556C151.003 20.5902 153.552 21.7745 155.971 23.2991C159.767 25.6904 162.36 29.116 164.171 33.1167C164.942 34.8189 165.329 36.7068 165.566 38.6045C166.869 49.0947 166.204 59.6274 166.219 70.1404C166.222 73.0969 166.206 76.0958 165.874 79.0441C165.39 83.3477 164.634 87.6269 162.168 91.3441C159.951 94.6883 157.169 97.4102 153.539 99.2688C150.786 100.678 147.838 101.432 144.857 101.888C142.016 102.321 139.112 102.82 136.219 102.473C132.673 102.049 129.088 102.043 125.594 100.995C121.508 99.7721 117.799 98.0878 115.067 94.6899C112.668 91.7057 111.176 88.3094 110.521 84.5417C109.179 76.8174 109.826 69.0197 109.676 63.1996Z" fill="#0C1736"/>
<path d="M439.451 62.5912C437.871 63.2769 436.897 64.5149 435.724 65.476C434.361 66.5918 433.22 67.9992 432.629 69.7063C431.964 71.6268 431.78 73.6662 431.671 75.6681C431.523 78.4178 431.502 81.182 431.974 83.9317C432.101 84.6744 432.178 85.4189 432.478 86.1079C433.097 87.5414 434.227 88.03 435.758 88.0186C437.221 88.0089 438.457 87.6749 438.949 86.2056C439.282 85.2169 439.451 84.1304 439.459 83.0846C439.513 76.5201 439.501 69.9539 439.51 63.3877C439.51 63.1548 439.477 62.9202 439.451 62.5912ZM431.556 51.2327H408.816C408.539 50.9753 408.638 50.643 408.64 50.3449C408.646 47.0789 408.513 43.8032 408.723 40.5502C408.922 37.4536 409.34 34.318 410.606 31.4543C411.943 28.4245 414.133 26.0365 416.837 24.0574C418.77 22.6435 420.836 21.4983 422.999 20.5682C425.296 19.5811 427.78 19.125 430.261 18.7813C433.14 18.3838 436.05 18.1395 438.933 18.4246C441.551 18.6819 444.189 18.8041 446.781 19.4215C449.335 20.0307 451.818 20.7816 454.066 22.119C456.62 23.6387 458.816 25.5527 460.484 28.1004C462.424 31.0683 463.028 34.318 463.393 37.7631C463.657 40.2489 463.448 42.7476 463.802 45.1894C464.356 49.0255 464.09 52.86 464.106 56.6912C464.167 71.0078 464.131 85.3244 464.131 99.641V100.845H440.335V94.2688C439.122 94.9008 438.679 96.0183 438.081 96.8751C436.752 98.7825 434.911 99.9 432.942 100.913C431.174 101.822 429.273 102.086 427.302 102.249C425.035 102.435 422.826 102.255 420.642 101.737C418.496 101.229 416.488 100.369 414.598 99.2044C412.743 98.0609 411.376 96.4776 410.489 94.5539C409.573 92.5698 409.05 90.4441 408.863 88.2385C408.409 82.9006 408.624 77.5561 408.71 72.2181C408.754 69.5173 409.388 66.8378 410.836 64.5019C411.857 62.855 413.569 61.9086 415.19 60.8922C417.522 59.4327 420.063 58.4081 422.552 57.2906C424.826 56.2709 427.244 55.5721 429.526 54.5687C432.458 53.2802 435.468 52.1221 438.141 50.3058C438.814 49.8497 438.874 49.0108 439.068 48.3218C439.624 46.3427 439.479 44.2918 439.519 42.2606C439.567 39.9068 439.374 37.5872 438.698 35.3279C438.275 33.9124 437.239 32.746 435.744 32.9187C435.007 33.0034 434.286 32.8275 433.527 33.2005C432.438 33.7332 432.15 34.5835 432.01 35.6455C431.352 40.5763 431.705 45.5331 431.614 50.4769C431.609 50.7114 431.578 50.946 431.556 51.2327Z" fill="#2969FF"/>
<path d="M373.552 48.7078C373.59 48.452 373.647 48.2517 373.647 48.0513C373.645 44.8961 373.719 41.7376 373.592 38.5873C373.539 37.3086 373.466 35.9875 373.023 34.7333C372.407 32.9936 369.677 32.1384 368.166 33.2607C367.646 33.6468 367.032 34.0442 367.004 34.7398C366.937 36.385 366.463 37.9765 366.527 39.6494C366.628 42.3143 366.546 44.9873 366.55 47.6571C366.55 47.9943 366.47 48.3511 366.724 48.7078H373.552ZM366.546 61.7538C366.546 62.2506 366.546 62.5911 366.546 62.9315C366.548 68.9781 366.55 75.023 366.551 81.0696C366.553 82.3825 366.685 83.684 366.946 84.9692C367.538 87.8785 369.14 88.3606 371.578 87.8508C373.049 87.5429 373.96 86.6112 374.326 85.1435C374.608 84.0179 374.921 82.9168 374.911 81.7212C374.875 77.31 374.919 72.8973 374.932 68.4845C374.932 68.105 374.932 67.7238 374.932 67.2368H398.617C398.439 69.5042 398.951 71.7684 398.345 74.0164C398.273 74.2786 398.296 74.5669 398.292 74.8438C398.275 76.059 398.26 77.2758 398.252 78.491C398.226 82.2603 397.576 85.901 395.716 89.2126C393.613 92.9591 390.946 96.1958 387.217 98.517C383.178 101.03 378.788 102.084 374.103 102.198C373.249 102.22 372.411 102.192 371.559 102.492C370.814 102.754 370 102.255 369.247 102.259C366.431 102.27 363.658 102.009 360.935 101.32C357.916 100.556 355.012 99.5155 352.347 97.841C350.715 96.8164 349.202 95.6647 347.978 94.2003C346.042 91.8807 344.465 89.3624 343.538 86.4157C342.816 84.1254 342.624 81.7945 342.249 79.4635C341.832 76.8653 341.963 74.2933 341.948 71.7147C341.898 62.8208 341.946 53.9252 341.937 45.0313C341.932 41.6334 342.458 38.2925 343.269 35.0265C344.354 30.6577 346.667 26.9503 350.231 24.1436C352.337 22.4854 354.732 21.3158 357.27 20.3857C359.654 19.511 362.114 18.9865 364.592 18.6509C367.019 18.3219 369.516 18.0971 371.948 18.4359C374.522 18.7943 377.138 18.9458 379.656 19.6283C381.917 20.244 384.088 21.1187 386.128 22.2802C388.662 23.7201 390.951 25.5038 392.769 27.7778C394.095 29.436 395.246 31.2441 395.924 33.3047C396.857 36.1423 397.555 39.0059 397.939 41.9917C398.169 43.7852 398.102 45.5623 398.276 47.3379C398.713 51.7522 398.566 56.1797 398.633 60.6038C398.648 61.5437 398.348 61.7717 397.457 61.7701C387.623 61.7441 377.791 61.7538 367.959 61.7538C367.547 61.7538 367.136 61.7538 366.546 61.7538Z" fill="#2969FF"/>
<path d="M209.817 67.6401H231.783C231.979 67.8339 231.87 68.1272 231.868 68.3878C231.863 70.6813 231.842 72.9748 231.827 75.2683C231.816 77.4104 231.588 79.5573 231.316 81.6586C230.84 85.34 229.42 88.7265 227.32 91.8573C225.294 94.8773 222.702 97.2311 219.643 99.0897C218.289 99.9107 216.776 100.471 215.24 100.903C212.681 101.623 210.099 102.126 207.423 102.286C206.02 102.369 204.61 102.595 203.209 102.483C199.537 102.19 195.828 102.028 192.298 100.854C186.766 99.0131 182.455 95.6152 179.83 90.3587C178.56 87.8143 177.882 85.0402 177.405 82.2075C176.758 78.3714 176.75 74.5158 176.748 70.6569C176.742 60.8589 176.564 51.0577 176.874 41.2646C176.98 37.9188 177.537 34.573 178.904 31.4487C180.225 28.4271 182.464 26.1498 185.071 24.2375C186.985 22.835 188.993 21.5872 191.251 20.7255C193.297 19.942 195.356 19.2823 197.517 18.9858C199.109 18.7676 200.682 18.4271 202.298 18.375C206.506 18.2398 210.619 18.7741 214.66 19.9583C219.504 21.3787 223.591 23.9475 226.841 27.8195C228.631 29.9534 229.587 32.4701 230.291 35.1333C231.598 40.0755 231.944 45.104 231.871 50.1846C231.87 50.2465 231.83 50.3084 231.801 50.398H208.529C208.529 46.6482 208.532 42.9733 208.527 39.2985C208.525 37.6337 208.457 35.9755 207.706 34.4394C207.157 33.3155 205.776 32.5955 204.486 32.7339C203.31 32.8626 202.161 33.809 201.853 34.9688C201.59 35.9576 201.427 36.9708 201.427 37.997C201.42 52.6247 201.389 67.254 201.456 81.8818C201.464 83.6345 201.933 85.4067 203.119 86.8565C204.017 87.956 205.24 88.2232 206.496 87.9316C207.589 87.6775 208.514 87.0829 208.939 85.84C209.957 82.8721 209.776 79.8114 209.809 76.7653C209.842 73.7502 209.817 70.7351 209.817 67.6401Z" fill="#0C1736"/>
<path d="M330.648 100.833H305.306V2.16602H330.648V100.833Z" fill="#2969FF"/>
<path d="M102.945 87.9817V100.738C102.635 101.011 102.274 100.92 101.94 100.919C96.7288 100.91 91.5146 100.976 86.3069 100.84C84.0981 100.783 81.8274 100.66 79.7082 99.9999C76.4617 98.9883 73.8864 96.9929 72.1353 94.0104C71.3876 92.7349 70.9706 91.3731 70.8924 89.9055C69.9591 71.9352 70.7067 53.9519 70.4657 35.9751C70.4608 35.5663 70.4657 35.1574 70.4657 34.6573H65.1326V21.7986H70.4266V9.20215H95.0722V21.6504H101.671V34.6459H95.1911C95.1601 35.0466 95.1227 35.3154 95.1227 35.5858C95.1292 50.6973 95.1161 65.8105 95.1862 80.9236C95.1927 82.458 95.4321 84.0088 95.5201 85.5562C95.5902 86.7682 96.5317 87.5549 97.8462 87.5566C99.5403 87.5598 101.187 87.9475 102.945 87.9817Z" fill="#0C1736"/>
</svg>
